<?xml version="1.0" encoding="UTF-8" standalone="no"?>
<!DOCTYPE svg PUBLIC "-//W3C//DTD SVG 1.1//EN"
 "http://www.w3.org/Graphics/SVG/1.1/DTD/svg11.dtd">
<!-- Generated by graphviz version 2.43.0 (0)
 -->
<!-- Title: parallel Pages: 1 -->
<svg width="492pt" height="260pt"
 viewBox="0.00 0.00 491.68 260.00" xmlns="http://www.w3.org/2000/svg" xmlns:xlink="http://www.w3.org/1999/xlink">
<g id="graph0" class="graph" transform="scale(1 1) rotate(0) translate(4 256)">
<title>parallel</title>
<!-- sites -->
<g id="node1" class="node">
<title>sites</title>
<ellipse fill="none" stroke="black" cx="155.53" cy="-90" rx="34.5" ry="18"/>
<text text-anchor="middle" x="155.53" y="-86.3" font-family="Times,serif" font-size="14.00">Sites</text>
</g>
<!-- pos -->
<g id="node2" class="node">
<title>pos</title>
<ellipse fill="none" stroke="black" cx="217.53" cy="-18" rx="48.19" ry="18"/>
<text text-anchor="middle" x="217.53" y="-14.3" font-family="Times,serif" font-size="14.00">Position</text>
</g>
<!-- sites&#45;&gt;pos -->
<g id="edge1" class="edge">
<title>sites&#45;&gt;pos</title>
<path fill="none" stroke="black" d="M169.29,-73.47C177.18,-64.57 187.24,-53.2 196.13,-43.16"/>
<polygon fill="black" stroke="black" points="198.94,-45.27 202.95,-35.47 193.7,-40.63 198.94,-45.27"/>
</g>
<!-- parts -->
<g id="node3" class="node">
<title>parts</title>
<ellipse fill="none" stroke="black" cx="186.53" cy="-162" rx="186.57" ry="18"/>
<text text-anchor="middle" x="186.53" y="-158.3" font-family="Times,serif" font-size="14.00">Particles, ParticleTypes, UniqueTypes</text>
</g>
<!-- parts&#45;&gt;sites -->
<g id="edge2" class="edge">
<title>parts&#45;&gt;sites</title>
<path fill="none" stroke="black" d="M178.87,-143.7C175.29,-135.61 170.95,-125.81 166.99,-116.87"/>
<polygon fill="black" stroke="black" points="170.15,-115.34 162.89,-107.62 163.75,-118.18 170.15,-115.34"/>
</g>
<!-- parts&#45;&gt;pos -->
<g id="edge3" class="edge">
<title>parts&#45;&gt;pos</title>
<path fill="none" stroke="black" d="M190.48,-143.83C192.85,-133.46 195.9,-119.98 198.53,-108 203.09,-87.3 208.09,-63.85 211.81,-46.22"/>
<polygon fill="black" stroke="black" points="215.31,-46.58 213.95,-36.08 208.47,-45.14 215.31,-46.58"/>
</g>
<!-- Bonds -->
<g id="node4" class="node">
<title>Bonds</title>
<ellipse fill="none" stroke="black" cx="285.53" cy="-90" rx="39.79" ry="18"/>
<text text-anchor="middle" x="285.53" y="-86.3" font-family="Times,serif" font-size="14.00">Bonds</text>
</g>
<!-- parts&#45;&gt;Bonds -->
<g id="edge4" class="edge">
<title>parts&#45;&gt;Bonds</title>
<path fill="none" stroke="black" d="M210.5,-144.05C224.37,-134.25 241.93,-121.83 256.57,-111.48"/>
<polygon fill="black" stroke="black" points="258.66,-114.29 264.81,-105.66 254.63,-108.57 258.66,-114.29"/>
</g>
<!-- domain -->
<g id="node5" class="node">
<title>domain</title>
<ellipse fill="none" stroke="black" cx="437.53" cy="-162" rx="46.29" ry="18"/>
<text text-anchor="middle" x="437.53" y="-158.3" font-family="Times,serif" font-size="14.00">Domain</text>
</g>
<!-- domain&#45;&gt;pos -->
<g id="edge5" class="edge">
<title>domain&#45;&gt;pos</title>
<path fill="none" stroke="black" d="M421.93,-144.94C402.69,-125.79 368.38,-93.64 334.53,-72 311.27,-57.12 283.15,-44.24 260.3,-34.9"/>
<polygon fill="black" stroke="black" points="261.45,-31.59 250.86,-31.12 258.85,-38.09 261.45,-31.59"/>
</g>
<!-- configs -->
<g id="node6" class="node">
<title>configs</title>
<ellipse fill="none" stroke="black" cx="311.53" cy="-234" rx="74.19" ry="18"/>
<text text-anchor="middle" x="311.53" y="-230.3" font-family="Times,serif" font-size="14.00">Configuration</text>
</g>
<!-- configs&#45;&gt;parts -->
<g id="edge6" class="edge">
<title>configs&#45;&gt;parts</title>
<path fill="none" stroke="black" d="M283.48,-217.29C266.41,-207.73 244.35,-195.38 225.59,-184.87"/>
<polygon fill="black" stroke="black" points="227.12,-181.71 216.68,-179.88 223.7,-187.82 227.12,-181.71"/>
</g>
<!-- configs&#45;&gt;domain -->
<g id="edge7" class="edge">
<title>configs&#45;&gt;domain</title>
<path fill="none" stroke="black" d="M339.81,-217.29C358.56,-206.87 383.28,-193.14 403.16,-182.09"/>
<polygon fill="black" stroke="black" points="404.88,-185.14 411.92,-177.23 401.48,-179.02 404.88,-185.14"/>
</g>
</g>
</svg>
