<?xml version="1.0" encoding="UTF-8" standalone="no"?>
<!DOCTYPE svg PUBLIC "-//W3C//DTD SVG 1.1//EN"
 "http://www.w3.org/Graphics/SVG/1.1/DTD/svg11.dtd">
<!-- Generated by graphviz version 2.43.0 (0)
 -->
<!-- Title: parallel Pages: 1 -->
<svg width="774pt" height="260pt"
 viewBox="0.00 0.00 773.50 260.00" xmlns="http://www.w3.org/2000/svg" xmlns:xlink="http://www.w3.org/1999/xlink">
<g id="graph0" class="graph" transform="scale(1 1) rotate(0) translate(4 256)">
<title>parallel</title>
<!-- ran -->
<g id="node1" class="node">
<title>ran</title>
<ellipse fill="none" stroke="black" cx="627.5" cy="-234" rx="48.99" ry="18"/>
<text text-anchor="middle" x="627.5" y="-230.3" font-family="Times,serif" font-size="14.00">Random</text>
</g>
<!-- mc -->
<g id="node2" class="node">
<title>mc</title>
<ellipse fill="none" stroke="black" cx="495.51" cy="-234" rx="65.79" ry="18"/>
<text text-anchor="middle" x="495.51" y="-230.3" font-family="Times,serif" font-size="14.00">MonteCarlo</text>
</g>
<!-- mc&#45;&gt;ran -->
<g id="edge1" class="edge">
<title>mc&#45;&gt;ran</title>
<path fill="none" stroke="black" d="M561.25,-234C563.68,-234 566.12,-234 568.55,-234"/>
<polygon fill="black" stroke="black" points="568.59,-237.5 578.58,-234 568.58,-230.5 568.59,-237.5"/>
</g>
<!-- sys -->
<g id="node3" class="node">
<title>sys</title>
<ellipse fill="none" stroke="black" cx="308.5" cy="-162" rx="45.5" ry="18"/>
<text text-anchor="middle" x="308.5" y="-158.3" font-family="Times,serif" font-size="14.00">System</text>
</g>
<!-- mc&#45;&gt;sys -->
<g id="edge2" class="edge">
<title>mc&#45;&gt;sys</title>
<path fill="none" stroke="black" d="M458.11,-219C426.9,-207.32 382.49,-190.69 350.15,-178.59"/>
<polygon fill="black" stroke="black" points="351.13,-175.22 340.53,-174.99 348.67,-181.77 351.13,-175.22"/>
</g>
<!-- crit -->
<g id="node4" class="node">
<title>crit</title>
<ellipse fill="none" stroke="black" cx="444.51" cy="-162" rx="47" ry="18"/>
<text text-anchor="middle" x="444.51" y="-158.3" font-family="Times,serif" font-size="14.00">Criteria</text>
</g>
<!-- mc&#45;&gt;crit -->
<g id="edge3" class="edge">
<title>mc&#45;&gt;crit</title>
<path fill="none" stroke="black" d="M483.15,-216.05C477.01,-207.63 469.48,-197.28 462.7,-187.97"/>
<polygon fill="black" stroke="black" points="465.45,-185.81 456.74,-179.79 459.8,-189.93 465.45,-185.81"/>
</g>
<!-- trials -->
<g id="node5" class="node">
<title>trials</title>
<ellipse fill="none" stroke="black" cx="546.5" cy="-162" rx="37.09" ry="18"/>
<text text-anchor="middle" x="546.5" y="-158.3" font-family="Times,serif" font-size="14.00">Trials</text>
</g>
<!-- mc&#45;&gt;trials -->
<g id="edge4" class="edge">
<title>mc&#45;&gt;trials</title>
<path fill="none" stroke="black" d="M507.85,-216.05C514.07,-207.5 521.75,-196.97 528.61,-187.56"/>
<polygon fill="black" stroke="black" points="531.56,-189.45 534.62,-179.31 525.9,-185.33 531.56,-189.45"/>
</g>
<!-- an -->
<g id="node6" class="node">
<title>an</title>
<ellipse fill="none" stroke="black" cx="683.5" cy="-162" rx="82" ry="18"/>
<text text-anchor="middle" x="683.5" y="-158.3" font-family="Times,serif" font-size="14.00">Analyze/Modify</text>
</g>
<!-- mc&#45;&gt;an -->
<g id="edge5" class="edge">
<title>mc&#45;&gt;an</title>
<path fill="none" stroke="black" d="M533.1,-219C562.12,-208.19 602.55,-193.14 634.18,-181.36"/>
<polygon fill="black" stroke="black" points="635.55,-184.59 643.7,-177.82 633.11,-178.02 635.55,-184.59"/>
</g>
<!-- configs -->
<g id="node7" class="node">
<title>configs</title>
<ellipse fill="none" stroke="black" cx="154.5" cy="-90" rx="79.5" ry="18"/>
<text text-anchor="middle" x="154.5" y="-86.3" font-family="Times,serif" font-size="14.00">Configurations</text>
</g>
<!-- sys&#45;&gt;configs -->
<g id="edge6" class="edge">
<title>sys&#45;&gt;configs</title>
<path fill="none" stroke="black" d="M279.89,-148C256.8,-137.5 223.97,-122.57 197.68,-110.63"/>
<polygon fill="black" stroke="black" points="198.88,-107.33 188.32,-106.37 195.97,-113.7 198.88,-107.33"/>
</g>
<!-- pots -->
<g id="node8" class="node">
<title>pots</title>
<ellipse fill="none" stroke="black" cx="308.5" cy="-90" rx="57.39" ry="18"/>
<text text-anchor="middle" x="308.5" y="-86.3" font-family="Times,serif" font-size="14.00">Potentials</text>
</g>
<!-- sys&#45;&gt;pots -->
<g id="edge7" class="edge">
<title>sys&#45;&gt;pots</title>
<path fill="none" stroke="black" d="M308.5,-143.7C308.5,-135.98 308.5,-126.71 308.5,-118.11"/>
<polygon fill="black" stroke="black" points="312.01,-118.1 308.5,-108.1 305.01,-118.1 312.01,-118.1"/>
</g>
<!-- met -->
<g id="node9" class="node">
<title>met</title>
<ellipse fill="none" stroke="black" cx="444.51" cy="-90" rx="61.19" ry="18"/>
<text text-anchor="middle" x="444.51" y="-86.3" font-family="Times,serif" font-size="14.00">Metropolis</text>
</g>
<!-- crit&#45;&gt;met -->
<g id="edge8" class="edge">
<title>crit&#45;&gt;met</title>
<path fill="none" stroke="black" stroke-dasharray="5,2" d="M444.5,-143.7C444.5,-135.98 444.5,-126.71 444.5,-118.11"/>
<polygon fill="black" stroke="black" points="448.01,-118.1 444.5,-108.1 441.01,-118.1 448.01,-118.1"/>
</g>
<!-- critfh -->
<g id="node10" class="node">
<title>critfh</title>
<ellipse fill="none" stroke="black" cx="602.5" cy="-90" rx="78.79" ry="18"/>
<text text-anchor="middle" x="602.5" y="-86.3" font-family="Times,serif" font-size="14.00">FlatHistogram</text>
</g>
<!-- crit&#45;&gt;critfh -->
<g id="edge9" class="edge">
<title>crit&#45;&gt;critfh</title>
<path fill="none" stroke="black" stroke-dasharray="5,2" d="M474.22,-147.83C498.04,-137.28 531.83,-122.31 558.75,-110.38"/>
<polygon fill="black" stroke="black" points="560.24,-113.55 567.96,-106.3 557.4,-107.15 560.24,-113.55"/>
</g>
<!-- Particles -->
<g id="node11" class="node">
<title>Particles</title>
<ellipse fill="none" stroke="black" cx="51.5" cy="-18" rx="51.5" ry="18"/>
<text text-anchor="middle" x="51.5" y="-14.3" font-family="Times,serif" font-size="14.00">Particles</text>
</g>
<!-- configs&#45;&gt;Particles -->
<g id="edge10" class="edge">
<title>configs&#45;&gt;Particles</title>
<path fill="none" stroke="black" d="M130.62,-72.77C116.41,-63.11 98.22,-50.75 82.86,-40.31"/>
<polygon fill="black" stroke="black" points="84.44,-37.15 74.2,-34.43 80.5,-42.94 84.44,-37.15"/>
</g>
<!-- Domain -->
<g id="node12" class="node">
<title>Domain</title>
<ellipse fill="none" stroke="black" cx="166.51" cy="-18" rx="46.29" ry="18"/>
<text text-anchor="middle" x="166.51" y="-14.3" font-family="Times,serif" font-size="14.00">Domain</text>
</g>
<!-- configs&#45;&gt;Domain -->
<g id="edge11" class="edge">
<title>configs&#45;&gt;Domain</title>
<path fill="none" stroke="black" d="M157.47,-71.7C158.78,-63.98 160.38,-54.71 161.85,-46.11"/>
<polygon fill="black" stroke="black" points="165.33,-46.55 163.56,-36.1 158.43,-45.37 165.33,-46.55"/>
</g>
<!-- Models -->
<g id="node13" class="node">
<title>Models</title>
<ellipse fill="none" stroke="black" cx="297.51" cy="-18" rx="44.39" ry="18"/>
<text text-anchor="middle" x="297.51" y="-14.3" font-family="Times,serif" font-size="14.00">Models</text>
</g>
<!-- pots&#45;&gt;Models -->
<g id="edge12" class="edge">
<title>pots&#45;&gt;Models</title>
<path fill="none" stroke="black" d="M305.78,-71.7C304.57,-63.98 303.12,-54.71 301.76,-46.11"/>
<polygon fill="black" stroke="black" points="305.2,-45.44 300.18,-36.1 298.29,-46.53 305.2,-45.44"/>
</g>
<!-- VisitModels -->
<g id="node14" class="node">
<title>VisitModels</title>
<ellipse fill="none" stroke="black" cx="425.5" cy="-18" rx="65.79" ry="18"/>
<text text-anchor="middle" x="425.5" y="-14.3" font-family="Times,serif" font-size="14.00">VisitModels</text>
</g>
<!-- pots&#45;&gt;VisitModels -->
<g id="edge13" class="edge">
<title>pots&#45;&gt;VisitModels</title>
<path fill="none" stroke="black" d="M333.88,-73.81C350.52,-63.86 372.49,-50.72 390.74,-39.8"/>
<polygon fill="black" stroke="black" points="392.57,-42.78 399.36,-34.64 388.98,-36.78 392.57,-42.78"/>
</g>
<!-- Macrostate -->
<g id="node15" class="node">
<title>Macrostate</title>
<ellipse fill="none" stroke="black" cx="587.5" cy="-18" rx="63.89" ry="18"/>
<text text-anchor="middle" x="587.5" y="-14.3" font-family="Times,serif" font-size="14.00">Macrostate</text>
</g>
<!-- critfh&#45;&gt;Macrostate -->
<g id="edge14" class="edge">
<title>critfh&#45;&gt;Macrostate</title>
<path fill="none" stroke="black" d="M598.79,-71.7C597.13,-63.98 595.15,-54.71 593.31,-46.11"/>
<polygon fill="black" stroke="black" points="596.69,-45.15 591.16,-36.1 589.84,-46.62 596.69,-45.15"/>
</g>
<!-- Bias -->
<g id="node16" class="node">
<title>Bias</title>
<ellipse fill="none" stroke="black" cx="699.5" cy="-18" rx="30.59" ry="18"/>
<text text-anchor="middle" x="699.5" y="-14.3" font-family="Times,serif" font-size="14.00">Bias</text>
</g>
<!-- critfh&#45;&gt;Bias -->
<g id="edge15" class="edge">
<title>critfh&#45;&gt;Bias</title>
<path fill="none" stroke="black" d="M625.49,-72.41C639.63,-62.2 657.82,-49.08 672.62,-38.39"/>
<polygon fill="black" stroke="black" points="674.84,-41.11 680.9,-32.42 670.75,-35.43 674.84,-41.11"/>
</g>
</g>
</svg>
