<?xml version="1.0" encoding="UTF-8" standalone="no"?>
<!DOCTYPE svg PUBLIC "-//W3C//DTD SVG 1.1//EN"
 "http://www.w3.org/Graphics/SVG/1.1/DTD/svg11.dtd">
<!-- Generated by graphviz version 2.43.0 (0)
 -->
<!-- Title: parallel Pages: 1 -->
<svg width="698pt" height="332pt"
 viewBox="0.00 0.00 698.50 332.00" xmlns="http://www.w3.org/2000/svg" xmlns:xlink="http://www.w3.org/1999/xlink">
<g id="graph0" class="graph" transform="scale(1 1) rotate(0) translate(4 328)">
<title>parallel</title>
<!-- trial -->
<g id="node1" class="node">
<title>trial</title>
<ellipse fill="none" stroke="black" cx="431" cy="-306" rx="32.5" ry="18"/>
<text text-anchor="middle" x="431" y="-302.3" font-family="Times,serif" font-size="14.00">Trial</text>
</g>
<!-- stages -->
<g id="node2" class="node">
<title>stages</title>
<ellipse fill="none" stroke="black" cx="297" cy="-234" rx="42.49" ry="18"/>
<text text-anchor="middle" x="297" y="-230.3" font-family="Times,serif" font-size="14.00">Stages</text>
</g>
<!-- trial&#45;&gt;stages -->
<g id="edge1" class="edge">
<title>trial&#45;&gt;stages</title>
<path fill="none" stroke="black" d="M408.27,-293.13C387.31,-282.17 355.88,-265.76 331.77,-253.16"/>
<polygon fill="black" stroke="black" points="333.07,-249.89 322.59,-248.37 329.84,-256.1 333.07,-249.89"/>
</g>
<!-- compute -->
<g id="node3" class="node">
<title>compute</title>
<ellipse fill="none" stroke="black" cx="431" cy="-234" rx="74.19" ry="18"/>
<text text-anchor="middle" x="431" y="-230.3" font-family="Times,serif" font-size="14.00">TrialCompute</text>
</g>
<!-- trial&#45;&gt;compute -->
<g id="edge2" class="edge">
<title>trial&#45;&gt;compute</title>
<path fill="none" stroke="black" d="M431,-287.7C431,-279.98 431,-270.71 431,-262.11"/>
<polygon fill="black" stroke="black" points="434.5,-262.1 431,-252.1 427.5,-262.1 434.5,-262.1"/>
</g>
<!-- acceptance -->
<g id="node4" class="node">
<title>acceptance</title>
<ellipse fill="none" stroke="black" cx="587" cy="-234" rx="63.89" ry="18"/>
<text text-anchor="middle" x="587" y="-230.3" font-family="Times,serif" font-size="14.00">Acceptance</text>
</g>
<!-- trial&#45;&gt;acceptance -->
<g id="edge3" class="edge">
<title>trial&#45;&gt;acceptance</title>
<path fill="none" stroke="black" d="M455.38,-294.06C479.32,-283.32 516.33,-266.71 545.02,-253.84"/>
<polygon fill="black" stroke="black" points="546.7,-256.92 554.39,-249.63 543.83,-250.54 546.7,-256.92"/>
</g>
<!-- rosenbluth -->
<g id="node5" class="node">
<title>rosenbluth</title>
<ellipse fill="none" stroke="black" cx="154" cy="-162" rx="63.89" ry="18"/>
<text text-anchor="middle" x="154" y="-158.3" font-family="Times,serif" font-size="14.00">Rosenbluth</text>
</g>
<!-- stages&#45;&gt;rosenbluth -->
<g id="edge4" class="edge">
<title>stages&#45;&gt;rosenbluth</title>
<path fill="none" stroke="black" d="M270.44,-220C248.81,-209.41 217.95,-194.31 193.44,-182.31"/>
<polygon fill="black" stroke="black" points="194.91,-179.13 184.39,-177.87 191.83,-185.42 194.91,-179.13"/>
</g>
<!-- select -->
<g id="node6" class="node">
<title>select</title>
<ellipse fill="none" stroke="black" cx="297" cy="-162" rx="61.19" ry="18"/>
<text text-anchor="middle" x="297" y="-158.3" font-family="Times,serif" font-size="14.00">TrialSelect</text>
</g>
<!-- stages&#45;&gt;select -->
<g id="edge5" class="edge">
<title>stages&#45;&gt;select</title>
<path fill="none" stroke="black" d="M297,-215.7C297,-207.98 297,-198.71 297,-190.11"/>
<polygon fill="black" stroke="black" points="300.5,-190.1 297,-180.1 293.5,-190.1 300.5,-190.1"/>
</g>
<!-- perturb -->
<g id="node7" class="node">
<title>perturb</title>
<ellipse fill="none" stroke="black" cx="472" cy="-162" rx="46.29" ry="18"/>
<text text-anchor="middle" x="472" y="-158.3" font-family="Times,serif" font-size="14.00">Perturb</text>
</g>
<!-- stages&#45;&gt;perturb -->
<g id="edge6" class="edge">
<title>stages&#45;&gt;perturb</title>
<path fill="none" stroke="black" d="M326.69,-221.13C355.5,-209.6 399.44,-192.02 431.46,-179.21"/>
<polygon fill="black" stroke="black" points="433,-182.36 440.99,-175.4 430.4,-175.86 433,-182.36"/>
</g>
<!-- selectpart -->
<g id="node8" class="node">
<title>selectpart</title>
<ellipse fill="none" stroke="black" cx="97" cy="-90" rx="97" ry="18"/>
<text text-anchor="middle" x="97" y="-86.3" font-family="Times,serif" font-size="14.00">TrialSelectParticle</text>
</g>
<!-- select&#45;&gt;selectpart -->
<g id="edge7" class="edge">
<title>select&#45;&gt;selectpart</title>
<path fill="none" stroke="black" stroke-dasharray="5,2" d="M258.91,-147.67C228.17,-136.91 184.56,-121.65 150.35,-109.67"/>
<polygon fill="black" stroke="black" points="151.1,-106.23 140.51,-106.23 148.79,-112.83 151.1,-106.23"/>
</g>
<!-- selectbond -->
<g id="node9" class="node">
<title>selectbond</title>
<ellipse fill="none" stroke="black" cx="297" cy="-90" rx="85.29" ry="18"/>
<text text-anchor="middle" x="297" y="-86.3" font-family="Times,serif" font-size="14.00">TrialSelectBond</text>
</g>
<!-- select&#45;&gt;selectbond -->
<g id="edge8" class="edge">
<title>select&#45;&gt;selectbond</title>
<path fill="none" stroke="black" stroke-dasharray="5,2" d="M297,-143.7C297,-135.98 297,-126.71 297,-118.11"/>
<polygon fill="black" stroke="black" points="300.5,-118.1 297,-108.1 293.5,-118.1 300.5,-118.1"/>
</g>
<!-- move -->
<g id="node10" class="node">
<title>move</title>
<ellipse fill="none" stroke="black" cx="472" cy="-90" rx="71.5" ry="18"/>
<text text-anchor="middle" x="472" y="-86.3" font-family="Times,serif" font-size="14.00">PerturbMove</text>
</g>
<!-- perturb&#45;&gt;move -->
<g id="edge9" class="edge">
<title>perturb&#45;&gt;move</title>
<path fill="none" stroke="black" stroke-dasharray="5,2" d="M472,-143.7C472,-135.98 472,-126.71 472,-118.11"/>
<polygon fill="black" stroke="black" points="475.5,-118.1 472,-108.1 468.5,-118.1 475.5,-118.1"/>
</g>
<!-- add -->
<g id="node11" class="node">
<title>add</title>
<ellipse fill="none" stroke="black" cx="626" cy="-90" rx="64.5" ry="18"/>
<text text-anchor="middle" x="626" y="-86.3" font-family="Times,serif" font-size="14.00">PerturbAdd</text>
</g>
<!-- perturb&#45;&gt;add -->
<g id="edge10" class="edge">
<title>perturb&#45;&gt;add</title>
<path fill="none" stroke="black" stroke-dasharray="5,2" d="M500.97,-147.83C524.48,-137.15 557.94,-121.94 584.33,-109.94"/>
<polygon fill="black" stroke="black" points="586.04,-113 593.7,-105.68 583.15,-106.63 586.04,-113"/>
</g>
<!-- trans -->
<g id="node12" class="node">
<title>trans</title>
<ellipse fill="none" stroke="black" cx="379" cy="-18" rx="90.5" ry="18"/>
<text text-anchor="middle" x="379" y="-14.3" font-family="Times,serif" font-size="14.00">PerturbTranslate</text>
</g>
<!-- move&#45;&gt;trans -->
<g id="edge11" class="edge">
<title>move&#45;&gt;trans</title>
<path fill="none" stroke="black" stroke-dasharray="5,2" d="M450.43,-72.77C438.17,-63.53 422.62,-51.83 409.16,-41.7"/>
<polygon fill="black" stroke="black" points="411.19,-38.85 401.1,-35.63 406.98,-44.44 411.19,-38.85"/>
</g>
<!-- rot -->
<g id="node13" class="node">
<title>rot</title>
<ellipse fill="none" stroke="black" cx="565" cy="-18" rx="77.5" ry="18"/>
<text text-anchor="middle" x="565" y="-14.3" font-family="Times,serif" font-size="14.00">PerturbRotate</text>
</g>
<!-- move&#45;&gt;rot -->
<g id="edge12" class="edge">
<title>move&#45;&gt;rot</title>
<path fill="none" stroke="black" stroke-dasharray="5,2" d="M493.57,-72.77C505.92,-63.47 521.61,-51.66 535.13,-41.48"/>
<polygon fill="black" stroke="black" points="537.34,-44.2 543.23,-35.39 533.13,-38.6 537.34,-44.2"/>
</g>
</g>
</svg>
