<?xml version="1.0" encoding="UTF-8" standalone="no"?>
<!DOCTYPE svg PUBLIC "-//W3C//DTD SVG 1.1//EN"
 "http://www.w3.org/Graphics/SVG/1.1/DTD/svg11.dtd">
<!-- Generated by graphviz version 2.40.1 (20161225.0304)
 -->
<!-- Title: parallel Pages: 1 -->
<svg width="657pt" height="260pt"
 viewBox="0.00 0.00 656.55 260.00" xmlns="http://www.w3.org/2000/svg" xmlns:xlink="http://www.w3.org/1999/xlink">
<g id="graph0" class="graph" transform="scale(1 1) rotate(0) translate(4 256)">
<title>parallel</title>
<!-- ran -->
<g id="node1" class="node">
<title>ran</title>
<ellipse fill="none" stroke="#000000" cx="529.004" cy="-234" rx="41" ry="18"/>
<text text-anchor="middle" x="529.004" y="-230.3" font-family="Times,serif" font-size="14.00" fill="#000000">Random</text>
</g>
<!-- mc -->
<g id="node2" class="node">
<title>mc</title>
<ellipse fill="none" stroke="#000000" cx="416.004" cy="-234" rx="54" ry="18"/>
<text text-anchor="middle" x="416.004" y="-230.3" font-family="Times,serif" font-size="14.00" fill="#000000">MonteCarlo</text>
</g>
<!-- mc&#45;&gt;ran -->
<g id="edge1" class="edge">
<title>mc&#45;&gt;ran</title>
<path fill="none" stroke="#000000" d="M470.294,-234C472.744,-234 475.194,-234 477.644,-234"/>
<polygon fill="#000000" stroke="#000000" points="477.724,-237.5001 487.724,-234 477.724,-230.5001 477.724,-237.5001"/>
</g>
<!-- sys -->
<g id="node3" class="node">
<title>sys</title>
<ellipse fill="none" stroke="#000000" cx="259.004" cy="-162" rx="37.0935" ry="18"/>
<text text-anchor="middle" x="259.004" y="-158.3" font-family="Times,serif" font-size="14.00" fill="#000000">System</text>
</g>
<!-- mc&#45;&gt;sys -->
<g id="edge2" class="edge">
<title>mc&#45;&gt;sys</title>
<path fill="none" stroke="#000000" d="M384.234,-219.43C358.534,-207.65 322.334,-191.04 295.464,-178.72"/>
<polygon fill="#000000" stroke="#000000" points="296.5631,-175.3737 286.014,-174.39 293.6471,-181.7375 296.5631,-175.3737"/>
</g>
<!-- crit -->
<g id="node4" class="node">
<title>crit</title>
<ellipse fill="none" stroke="#000000" cx="373.004" cy="-162" rx="37.8943" ry="18"/>
<text text-anchor="middle" x="373.004" y="-158.3" font-family="Times,serif" font-size="14.00" fill="#000000">Criteria</text>
</g>
<!-- mc&#45;&gt;crit -->
<g id="edge3" class="edge">
<title>mc&#45;&gt;crit</title>
<path fill="none" stroke="#000000" d="M405.374,-216.2C400.284,-207.68 394.094,-197.31 388.494,-187.94"/>
<polygon fill="#000000" stroke="#000000" points="391.4886,-186.1281 383.354,-179.34 385.48,-189.7193 391.4886,-186.1281"/>
</g>
<!-- trials -->
<g id="node5" class="node">
<title>trials</title>
<ellipse fill="none" stroke="#000000" cx="460.004" cy="-162" rx="31.3957" ry="18"/>
<text text-anchor="middle" x="460.004" y="-158.3" font-family="Times,serif" font-size="14.00" fill="#000000">Trials</text>
</g>
<!-- mc&#45;&gt;trials -->
<g id="edge4" class="edge">
<title>mc&#45;&gt;trials</title>
<path fill="none" stroke="#000000" d="M426.874,-216.2C432.124,-207.62 438.514,-197.16 444.274,-187.73"/>
<polygon fill="#000000" stroke="#000000" points="447.3206,-189.4568 449.554,-179.1 441.3495,-185.8035 447.3206,-189.4568"/>
</g>
<!-- an -->
<g id="node6" class="node">
<title>an</title>
<ellipse fill="none" stroke="#000000" cx="579.004" cy="-162" rx="69.5877" ry="18"/>
<text text-anchor="middle" x="579.004" y="-158.3" font-family="Times,serif" font-size="14.00" fill="#000000">Analyze/Modify</text>
</g>
<!-- mc&#45;&gt;an -->
<g id="edge5" class="edge">
<title>mc&#45;&gt;an</title>
<path fill="none" stroke="#000000" d="M448.594,-219.6C473.194,-208.74 507.224,-193.7 534.354,-181.72"/>
<polygon fill="#000000" stroke="#000000" points="535.9014,-184.8628 543.634,-177.62 533.0725,-178.4598 535.9014,-184.8628"/>
</g>
<!-- configs -->
<g id="node7" class="node">
<title>configs</title>
<ellipse fill="none" stroke="#000000" cx="132.004" cy="-90" rx="63.8893" ry="18"/>
<text text-anchor="middle" x="132.004" y="-86.3" font-family="Times,serif" font-size="14.00" fill="#000000">Configurations</text>
</g>
<!-- sys&#45;&gt;configs -->
<g id="edge6" class="edge">
<title>sys&#45;&gt;configs</title>
<path fill="none" stroke="#000000" d="M234.814,-148.29C216.304,-137.79 190.434,-123.13 169.284,-111.14"/>
<polygon fill="#000000" stroke="#000000" points="170.9595,-108.0666 160.534,-106.18 167.5075,-114.1563 170.9595,-108.0666"/>
</g>
<!-- pots -->
<g id="node8" class="node">
<title>pots</title>
<ellipse fill="none" stroke="#000000" cx="259.004" cy="-90" rx="45.5" ry="18"/>
<text text-anchor="middle" x="259.004" y="-86.3" font-family="Times,serif" font-size="14.00" fill="#000000">Potentials</text>
</g>
<!-- sys&#45;&gt;pots -->
<g id="edge7" class="edge">
<title>sys&#45;&gt;pots</title>
<path fill="none" stroke="#000000" d="M259.004,-143.83C259.004,-136.13 259.004,-126.97 259.004,-118.42"/>
<polygon fill="#000000" stroke="#000000" points="262.5041,-118.41 259.004,-108.41 255.5041,-118.41 262.5041,-118.41"/>
</g>
<!-- met -->
<g id="node9" class="node">
<title>met</title>
<ellipse fill="none" stroke="#000000" cx="373.004" cy="-90" rx="50.0912" ry="18"/>
<text text-anchor="middle" x="373.004" y="-86.3" font-family="Times,serif" font-size="14.00" fill="#000000">Metropolis</text>
</g>
<!-- crit&#45;&gt;met -->
<g id="edge8" class="edge">
<title>crit&#45;&gt;met</title>
<path fill="none" stroke="#000000" stroke-dasharray="5,2" d="M373.004,-143.83C373.004,-136.13 373.004,-126.97 373.004,-118.42"/>
<polygon fill="#000000" stroke="#000000" points="376.5041,-118.41 373.004,-108.41 369.5041,-118.41 376.5041,-118.41"/>
</g>
<!-- critfh -->
<g id="node10" class="node">
<title>critfh</title>
<ellipse fill="none" stroke="#000000" cx="503.004" cy="-90" rx="61.99" ry="18"/>
<text text-anchor="middle" x="503.004" y="-86.3" font-family="Times,serif" font-size="14.00" fill="#000000">FlatHistogram</text>
</g>
<!-- crit&#45;&gt;critfh -->
<g id="edge9" class="edge">
<title>crit&#45;&gt;critfh</title>
<path fill="none" stroke="#000000" stroke-dasharray="5,2" d="M397.754,-148.29C416.714,-137.79 443.184,-123.13 464.844,-111.14"/>
<polygon fill="#000000" stroke="#000000" points="466.7439,-114.0887 473.794,-106.18 463.3508,-107.966 466.7439,-114.0887"/>
</g>
<!-- Particles -->
<g id="node11" class="node">
<title>Particles</title>
<ellipse fill="none" stroke="#000000" cx="41" cy="-18" rx="41" ry="18"/>
<text text-anchor="middle" x="41" y="-14.3" font-family="Times,serif" font-size="14.00" fill="#000000">Particles</text>
</g>
<!-- configs&#45;&gt;Particles -->
<g id="edge10" class="edge">
<title>configs&#45;&gt;Particles</title>
<path fill="none" stroke="#000000" d="M110.434,-72.937C98.074,-63.157 82.418,-50.77 69.102,-40.235"/>
<polygon fill="#000000" stroke="#000000" points="71.1778,-37.4144 61.164,-33.954 66.8343,-42.9038 71.1778,-37.4144"/>
</g>
<!-- Domain -->
<g id="node12" class="node">
<title>Domain</title>
<ellipse fill="none" stroke="#000000" cx="140.004" cy="-18" rx="39.7935" ry="18"/>
<text text-anchor="middle" x="140.004" y="-14.3" font-family="Times,serif" font-size="14.00" fill="#000000">Domain</text>
</g>
<!-- configs&#45;&gt;Domain -->
<g id="edge11" class="edge">
<title>configs&#45;&gt;Domain</title>
<path fill="none" stroke="#000000" d="M134.024,-71.831C134.874,-64.131 135.894,-54.974 136.844,-46.417"/>
<polygon fill="#000000" stroke="#000000" points="140.3298,-46.738 137.954,-36.413 133.3725,-45.966 140.3298,-46.738"/>
</g>
<!-- Models -->
<g id="node13" class="node">
<title>Models</title>
<ellipse fill="none" stroke="#000000" cx="251.004" cy="-18" rx="37.8943" ry="18"/>
<text text-anchor="middle" x="251.004" y="-14.3" font-family="Times,serif" font-size="14.00" fill="#000000">Models</text>
</g>
<!-- pots&#45;&gt;Models -->
<g id="edge12" class="edge">
<title>pots&#45;&gt;Models</title>
<path fill="none" stroke="#000000" d="M256.984,-71.831C256.124,-64.131 255.104,-54.974 254.154,-46.417"/>
<polygon fill="#000000" stroke="#000000" points="257.6255,-45.966 253.044,-36.413 250.6682,-46.738 257.6255,-45.966"/>
</g>
<!-- VisitModels -->
<g id="node14" class="node">
<title>VisitModels</title>
<ellipse fill="none" stroke="#000000" cx="361.004" cy="-18" rx="54.6905" ry="18"/>
<text text-anchor="middle" x="361.004" y="-14.3" font-family="Times,serif" font-size="14.00" fill="#000000">VisitModels</text>
</g>
<!-- pots&#45;&gt;VisitModels -->
<g id="edge13" class="edge">
<title>pots&#45;&gt;VisitModels</title>
<path fill="none" stroke="#000000" d="M281.384,-74.199C295.434,-64.28 313.774,-51.336 329.314,-40.37"/>
<polygon fill="#000000" stroke="#000000" points="331.4557,-43.1424 337.604,-34.514 327.4169,-37.425 331.4557,-43.1424"/>
</g>
<!-- Macrostate -->
<g id="node15" class="node">
<title>Macrostate</title>
<ellipse fill="none" stroke="#000000" cx="494.004" cy="-18" rx="50.0912" ry="18"/>
<text text-anchor="middle" x="494.004" y="-14.3" font-family="Times,serif" font-size="14.00" fill="#000000">Macrostate</text>
</g>
<!-- critfh&#45;&gt;Macrostate -->
<g id="edge14" class="edge">
<title>critfh&#45;&gt;Macrostate</title>
<path fill="none" stroke="#000000" d="M500.734,-71.831C499.764,-64.131 498.624,-54.974 497.554,-46.417"/>
<polygon fill="#000000" stroke="#000000" points="501.0169,-45.9019 496.304,-36.413 494.071,-46.7698 501.0169,-45.9019"/>
</g>
<!-- Bias -->
<g id="node16" class="node">
<title>Bias</title>
<ellipse fill="none" stroke="#000000" cx="589.004" cy="-18" rx="27" ry="18"/>
<text text-anchor="middle" x="589.004" y="-14.3" font-family="Times,serif" font-size="14.00" fill="#000000">Bias</text>
</g>
<!-- critfh&#45;&gt;Bias -->
<g id="edge15" class="edge">
<title>critfh&#45;&gt;Bias</title>
<path fill="none" stroke="#000000" d="M523.384,-72.937C535.524,-62.771 551.034,-49.79 563.924,-38.998"/>
<polygon fill="#000000" stroke="#000000" points="566.5333,-41.3781 571.954,-32.275 562.0397,-36.0109 566.5333,-41.3781"/>
</g>
</g>
</svg>
