<?xml version="1.0" encoding="UTF-8" standalone="no"?>
<!DOCTYPE svg PUBLIC "-//W3C//DTD SVG 1.1//EN"
 "http://www.w3.org/Graphics/SVG/1.1/DTD/svg11.dtd">
<!-- Generated by graphviz version 2.40.1 (20161225.0304)
 -->
<!-- Title: parallel Pages: 1 -->
<svg width="786pt" height="188pt"
 viewBox="0.00 0.00 786.09 188.00" xmlns="http://www.w3.org/2000/svg" xmlns:xlink="http://www.w3.org/1999/xlink">
<g id="graph0" class="graph" transform="scale(1 1) rotate(0) translate(4 184)">
<title>parallel</title>
<polygon fill="#ffffff" stroke="transparent" points="-4,4 -4,-184 782.0913,-184 782.0913,4 -4,4"/>
<!-- critfh -->
<g id="node1" class="node">
<title>critfh</title>
<ellipse fill="none" stroke="#000000" cx="304.999" cy="-162" rx="89.0842" ry="18"/>
<text text-anchor="middle" x="304.999" y="-158.3" font-family="Times,serif" font-size="14.00" fill="#000000">CriteriaFlatHistogram</text>
</g>
<!-- macro -->
<g id="node2" class="node">
<title>macro</title>
<ellipse fill="none" stroke="#000000" cx="257.999" cy="-90" rx="50.0912" ry="18"/>
<text text-anchor="middle" x="257.999" y="-86.3" font-family="Times,serif" font-size="14.00" fill="#000000">Macrostate</text>
</g>
<!-- critfh&#45;&gt;macro -->
<g id="edge1" class="edge">
<title>critfh&#45;&gt;macro</title>
<path fill="none" stroke="#000000" d="M293.139,-143.83C287.699,-135.5 281.149,-125.46 275.179,-116.32"/>
<polygon fill="#000000" stroke="#000000" points="278.0862,-114.3705 269.689,-107.91 272.2246,-118.197 278.0862,-114.3705"/>
</g>
<!-- bias -->
<g id="node3" class="node">
<title>bias</title>
<ellipse fill="none" stroke="#000000" cx="414.999" cy="-90" rx="27" ry="18"/>
<text text-anchor="middle" x="414.999" y="-86.3" font-family="Times,serif" font-size="14.00" fill="#000000">Bias</text>
</g>
<!-- critfh&#45;&gt;bias -->
<g id="edge2" class="edge">
<title>critfh&#45;&gt;bias</title>
<path fill="none" stroke="#000000" d="M331.349,-144.75C348.129,-133.77 369.839,-119.56 386.939,-108.37"/>
<polygon fill="#000000" stroke="#000000" points="388.963,-111.2283 395.409,-102.82 385.1264,-105.3733 388.963,-111.2283"/>
</g>
<!-- MacrostateNumParticles -->
<g id="node4" class="node">
<title>MacrostateNumParticles</title>
<ellipse fill="none" stroke="#000000" cx="99" cy="-18" rx="99" ry="18"/>
<text text-anchor="middle" x="99" y="-14.3" font-family="Times,serif" font-size="14.00" fill="#000000">MacrostateNumParticles</text>
</g>
<!-- macro&#45;&gt;MacrostateNumParticles -->
<g id="edge3" class="edge">
<title>macro&#45;&gt;MacrostateNumParticles</title>
<path fill="none" stroke="#000000" stroke-dasharray="5,2" d="M226.589,-75.775C203.369,-65.263 171.399,-50.783 145.269,-38.95"/>
<polygon fill="#000000" stroke="#000000" points="146.4825,-35.6574 135.929,-34.722 143.5957,-42.0345 146.4825,-35.6574"/>
</g>
<!-- LnProbabilityDistribution -->
<g id="node5" class="node">
<title>LnProbabilityDistribution</title>
<ellipse fill="none" stroke="#000000" cx="317.999" cy="-18" rx="102.0819" ry="18"/>
<text text-anchor="middle" x="317.999" y="-14.3" font-family="Times,serif" font-size="14.00" fill="#000000">LnProbabilityDistribution</text>
</g>
<!-- bias&#45;&gt;LnProbabilityDistribution -->
<g id="edge4" class="edge">
<title>bias&#45;&gt;LnProbabilityDistribution</title>
<path fill="none" stroke="#000000" d="M396.759,-76.457C383.609,-66.696 365.509,-53.267 349.989,-41.742"/>
<polygon fill="#000000" stroke="#000000" points="351.7857,-38.717 341.669,-35.57 347.6151,-44.3389 351.7857,-38.717"/>
</g>
<!-- BiasWangLandau -->
<g id="node6" class="node">
<title>BiasWangLandau</title>
<ellipse fill="none" stroke="#000000" cx="511.999" cy="-18" rx="74.187" ry="18"/>
<text text-anchor="middle" x="511.999" y="-14.3" font-family="Times,serif" font-size="14.00" fill="#000000">BiasWangLandau</text>
</g>
<!-- bias&#45;&gt;BiasWangLandau -->
<g id="edge5" class="edge">
<title>bias&#45;&gt;BiasWangLandau</title>
<path fill="none" stroke="#000000" stroke-dasharray="5,2" d="M433.249,-76.457C446.489,-66.627 464.739,-53.078 480.339,-41.499"/>
<polygon fill="#000000" stroke="#000000" points="482.7434,-44.0733 488.689,-35.304 478.5725,-38.4515 482.7434,-44.0733"/>
</g>
<!-- BiasTransitionMatrix -->
<g id="node7" class="node">
<title>BiasTransitionMatrix</title>
<ellipse fill="none" stroke="#000000" cx="690.999" cy="-18" rx="87.1846" ry="18"/>
<text text-anchor="middle" x="690.999" y="-14.3" font-family="Times,serif" font-size="14.00" fill="#000000">BiasTransitionMatrix</text>
</g>
<!-- bias&#45;&gt;BiasTransitionMatrix -->
<g id="edge6" class="edge">
<title>bias&#45;&gt;BiasTransitionMatrix</title>
<path fill="none" stroke="#000000" stroke-dasharray="5,2" d="M440.469,-83.355C482.479,-72.397 567.539,-50.209 626.819,-34.742"/>
<polygon fill="#000000" stroke="#000000" points="628.0464,-38.039 636.839,-32.128 626.2793,-31.2657 628.0464,-38.039"/>
</g>
</g>
</svg>
