<?xml version="1.0" encoding="UTF-8" standalone="no"?>
<!DOCTYPE svg PUBLIC "-//W3C//DTD SVG 1.1//EN"
 "http://www.w3.org/Graphics/SVG/1.1/DTD/svg11.dtd">
<!-- Generated by graphviz version 2.40.1 (20161225.0304)
 -->
<!-- Title: parallel Pages: 1 -->
<svg width="398pt" height="260pt"
 viewBox="0.00 0.00 397.88 260.00" xmlns="http://www.w3.org/2000/svg" xmlns:xlink="http://www.w3.org/1999/xlink">
<g id="graph0" class="graph" transform="scale(1 1) rotate(0) translate(4 256)">
<title>parallel</title>
<!-- sites -->
<g id="node1" class="node">
<title>sites</title>
<ellipse fill="none" stroke="#000000" cx="97.234" cy="-90" rx="28" ry="18"/>
<text text-anchor="middle" x="97.234" y="-86.3" font-family="Times,serif" font-size="14.00" fill="#000000">Sites</text>
</g>
<!-- pos -->
<g id="node2" class="node">
<title>pos</title>
<ellipse fill="none" stroke="#000000" cx="153.237" cy="-18" rx="39.7935" ry="18"/>
<text text-anchor="middle" x="153.237" y="-14.3" font-family="Times,serif" font-size="14.00" fill="#000000">Position</text>
</g>
<!-- sites&#45;&gt;pos -->
<g id="edge1" class="edge">
<title>sites&#45;&gt;pos</title>
<path fill="none" stroke="#000000" d="M109.937,-73.662C116.947,-64.651 125.807,-53.269 133.677,-43.149"/>
<polygon fill="#000000" stroke="#000000" points="136.6193,-45.067 139.997,-35.025 131.0943,-40.7688 136.6193,-45.067"/>
</g>
<!-- parts -->
<g id="node3" class="node">
<title>parts</title>
<ellipse fill="none" stroke="#000000" cx="146.237" cy="-162" rx="146.4744" ry="18"/>
<text text-anchor="middle" x="146.237" y="-158.3" font-family="Times,serif" font-size="14.00" fill="#000000">Particles, ParticleTypes, UniqueTypes</text>
</g>
<!-- parts&#45;&gt;sites -->
<g id="edge2" class="edge">
<title>parts&#45;&gt;sites</title>
<path fill="none" stroke="#000000" d="M133.867,-143.83C127.967,-135.16 120.807,-124.63 114.387,-115.2"/>
<polygon fill="#000000" stroke="#000000" points="117.2777,-113.2267 108.757,-106.93 111.4913,-117.1659 117.2777,-113.2267"/>
</g>
<!-- parts&#45;&gt;pos -->
<g id="edge3" class="edge">
<title>parts&#45;&gt;pos</title>
<path fill="none" stroke="#000000" d="M147.117,-143.76C148.317,-119.2 150.447,-75.247 151.857,-46.354"/>
<polygon fill="#000000" stroke="#000000" points="155.3662,-46.2485 152.357,-36.09 148.3745,-45.9078 155.3662,-46.2485"/>
</g>
<!-- Bonds -->
<g id="node4" class="node">
<title>Bonds</title>
<ellipse fill="none" stroke="#000000" cx="214.237" cy="-90" rx="33.2948" ry="18"/>
<text text-anchor="middle" x="214.237" y="-86.3" font-family="Times,serif" font-size="14.00" fill="#000000">Bonds</text>
</g>
<!-- parts&#45;&gt;Bonds -->
<g id="edge4" class="edge">
<title>parts&#45;&gt;Bonds</title>
<path fill="none" stroke="#000000" d="M163.397,-143.83C171.957,-134.76 182.437,-123.66 191.647,-113.91"/>
<polygon fill="#000000" stroke="#000000" points="194.3819,-116.1118 198.707,-106.44 189.2945,-111.3036 194.3819,-116.1118"/>
</g>
<!-- domain -->
<g id="node5" class="node">
<title>domain</title>
<ellipse fill="none" stroke="#000000" cx="350.237" cy="-162" rx="39.7935" ry="18"/>
<text text-anchor="middle" x="350.237" y="-158.3" font-family="Times,serif" font-size="14.00" fill="#000000">Domain</text>
</g>
<!-- domain&#45;&gt;pos -->
<g id="edge5" class="edge">
<title>domain&#45;&gt;pos</title>
<path fill="none" stroke="#000000" d="M335.477,-145.26C317.907,-125.99 287.057,-94.155 256.237,-72 235.997,-57.451 211.327,-44.377 191.207,-34.738"/>
<polygon fill="#000000" stroke="#000000" points="192.5567,-31.5052 182.017,-30.425 189.5827,-37.842 192.5567,-31.5052"/>
</g>
<!-- Cells -->
<g id="node6" class="node">
<title>Cells</title>
<ellipse fill="none" stroke="#000000" cx="350.237" cy="-90" rx="28.6953" ry="18"/>
<text text-anchor="middle" x="350.237" y="-86.3" font-family="Times,serif" font-size="14.00" fill="#000000">Cells</text>
</g>
<!-- domain&#45;&gt;Cells -->
<g id="edge6" class="edge">
<title>domain&#45;&gt;Cells</title>
<path fill="none" stroke="#000000" d="M350.237,-143.83C350.237,-136.13 350.237,-126.97 350.237,-118.42"/>
<polygon fill="#000000" stroke="#000000" points="353.7371,-118.41 350.237,-108.41 346.7371,-118.41 353.7371,-118.41"/>
</g>
<!-- configs -->
<g id="node7" class="node">
<title>configs</title>
<ellipse fill="none" stroke="#000000" cx="248.237" cy="-234" rx="60" ry="18"/>
<text text-anchor="middle" x="248.237" y="-230.3" font-family="Times,serif" font-size="14.00" fill="#000000">Configuration</text>
</g>
<!-- configs&#45;&gt;parts -->
<g id="edge7" class="edge">
<title>configs&#45;&gt;parts</title>
<path fill="none" stroke="#000000" d="M224.577,-217.3C211.297,-207.92 194.497,-196.07 179.867,-185.74"/>
<polygon fill="#000000" stroke="#000000" points="181.7358,-182.7751 171.547,-179.87 177.7004,-188.4948 181.7358,-182.7751"/>
</g>
<!-- configs&#45;&gt;domain -->
<g id="edge8" class="edge">
<title>configs&#45;&gt;domain</title>
<path fill="none" stroke="#000000" d="M271.887,-217.3C286.287,-207.14 304.817,-194.06 320.247,-183.17"/>
<polygon fill="#000000" stroke="#000000" points="322.297,-186.0072 328.447,-177.38 318.2593,-180.2889 322.297,-186.0072"/>
</g>
</g>
</svg>
