<?xml version="1.0" encoding="UTF-8" standalone="no"?>
<!DOCTYPE svg PUBLIC "-//W3C//DTD SVG 1.1//EN"
 "http://www.w3.org/Graphics/SVG/1.1/DTD/svg11.dtd">
<!-- Generated by graphviz version 2.40.1 (20161225.0304)
 -->
<!-- Title: parallel Pages: 1 -->
<svg width="639pt" height="188pt"
 viewBox="0.00 0.00 639.50 188.00" xmlns="http://www.w3.org/2000/svg" xmlns:xlink="http://www.w3.org/1999/xlink">
<g id="graph0" class="graph" transform="scale(1 1) rotate(0) translate(4 184)">
<title>parallel</title>
<!-- critfh -->
<g id="node1" class="node">
<title>critfh</title>
<ellipse fill="none" stroke="#000000" cx="254.999" cy="-162" rx="61.99" ry="18"/>
<text text-anchor="middle" x="254.999" y="-158.3" font-family="Times,serif" font-size="14.00" fill="#000000">FlatHistogram</text>
</g>
<!-- macro -->
<g id="node2" class="node">
<title>macro</title>
<ellipse fill="none" stroke="#000000" cx="207.999" cy="-90" rx="50.0912" ry="18"/>
<text text-anchor="middle" x="207.999" y="-86.3" font-family="Times,serif" font-size="14.00" fill="#000000">Macrostate</text>
</g>
<!-- critfh&#45;&gt;macro -->
<g id="edge1" class="edge">
<title>critfh&#45;&gt;macro</title>
<path fill="none" stroke="#000000" d="M243.379,-144.2C237.859,-135.74 231.149,-125.47 225.069,-116.15"/>
<polygon fill="#000000" stroke="#000000" points="227.882,-114.056 219.489,-107.59 222.0179,-117.8786 227.882,-114.056"/>
</g>
<!-- bias -->
<g id="node3" class="node">
<title>bias</title>
<ellipse fill="none" stroke="#000000" cx="343.999" cy="-90" rx="27" ry="18"/>
<text text-anchor="middle" x="343.999" y="-86.3" font-family="Times,serif" font-size="14.00" fill="#000000">Bias</text>
</g>
<!-- critfh&#45;&gt;bias -->
<g id="edge2" class="edge">
<title>critfh&#45;&gt;bias</title>
<path fill="none" stroke="#000000" d="M276.089,-144.94C288.859,-134.61 305.229,-121.37 318.699,-110.47"/>
<polygon fill="#000000" stroke="#000000" points="321.0748,-113.05 326.649,-104.04 316.6728,-107.6073 321.0748,-113.05"/>
</g>
<!-- MacrostateNumParticles -->
<g id="node4" class="node">
<title>MacrostateNumParticles</title>
<ellipse fill="none" stroke="#000000" cx="99" cy="-18" rx="99" ry="18"/>
<text text-anchor="middle" x="99" y="-14.3" font-family="Times,serif" font-size="14.00" fill="#000000">MacrostateNumParticles</text>
</g>
<!-- macro&#45;&gt;MacrostateNumParticles -->
<g id="edge3" class="edge">
<title>macro&#45;&gt;MacrostateNumParticles</title>
<path fill="none" stroke="#000000" stroke-dasharray="5,2" d="M183.809,-74.021C169.199,-64.373 150.339,-51.912 134.109,-41.193"/>
<polygon fill="#000000" stroke="#000000" points="135.682,-38.0374 125.409,-35.446 131.8238,-43.8782 135.682,-38.0374"/>
</g>
<!-- LnProbability -->
<g id="node5" class="node">
<title>LnProbability</title>
<ellipse fill="none" stroke="#000000" cx="275.999" cy="-18" rx="60" ry="18"/>
<text text-anchor="middle" x="275.999" y="-14.3" font-family="Times,serif" font-size="14.00" fill="#000000">LnProbability</text>
</g>
<!-- bias&#45;&gt;LnProbability -->
<g id="edge4" class="edge">
<title>bias&#45;&gt;LnProbability</title>
<path fill="none" stroke="#000000" d="M329.579,-74.731C320.859,-65.496 309.529,-53.502 299.539,-42.921"/>
<polygon fill="#000000" stroke="#000000" points="301.9622,-40.3894 292.549,-35.527 296.8754,-45.1983 301.9622,-40.3894"/>
</g>
<!-- WangLandau -->
<g id="node6" class="node">
<title>WangLandau</title>
<ellipse fill="none" stroke="#000000" cx="411.999" cy="-18" rx="58.5" ry="18"/>
<text text-anchor="middle" x="411.999" y="-14.3" font-family="Times,serif" font-size="14.00" fill="#000000">WangLandau</text>
</g>
<!-- bias&#45;&gt;WangLandau -->
<g id="edge5" class="edge">
<title>bias&#45;&gt;WangLandau</title>
<path fill="none" stroke="#000000" stroke-dasharray="5,2" d="M358.419,-74.731C367.139,-65.496 378.469,-53.502 388.459,-42.921"/>
<polygon fill="#000000" stroke="#000000" points="391.1226,-45.1983 395.449,-35.527 386.0358,-40.3894 391.1226,-45.1983"/>
</g>
<!-- TransitionMatrix -->
<g id="node7" class="node">
<title>TransitionMatrix</title>
<ellipse fill="none" stroke="#000000" cx="559.999" cy="-18" rx="71.5" ry="18"/>
<text text-anchor="middle" x="559.999" y="-14.3" font-family="Times,serif" font-size="14.00" fill="#000000">TransitionMatrix</text>
</g>
<!-- bias&#45;&gt;TransitionMatrix -->
<g id="edge6" class="edge">
<title>bias&#45;&gt;TransitionMatrix</title>
<path fill="none" stroke="#000000" stroke-dasharray="5,2" d="M368.359,-81.881C401.799,-70.734 462.799,-50.4 507.019,-35.661"/>
<polygon fill="#000000" stroke="#000000" points="508.3602,-38.9033 516.739,-32.419 506.1453,-32.2629 508.3602,-38.9033"/>
</g>
</g>
</svg>
