<?xml version="1.0" encoding="UTF-8" standalone="no"?>
<!DOCTYPE svg PUBLIC "-//W3C//DTD SVG 1.1//EN"
 "http://www.w3.org/Graphics/SVG/1.1/DTD/svg11.dtd">
<!-- Generated by graphviz version 2.40.1 (20161225.0304)
 -->
<!-- Title: parallel Pages: 1 -->
<svg width="752pt" height="260pt"
 viewBox="0.00 0.00 751.55 260.00" xmlns="http://www.w3.org/2000/svg" xmlns:xlink="http://www.w3.org/1999/xlink">
<g id="graph0" class="graph" transform="scale(1 1) rotate(0) translate(4 256)">
<title>parallel</title>
<polygon fill="#ffffff" stroke="transparent" points="-4,4 -4,-256 747.5478,-256 747.5478,4 -4,4"/>
<!-- configs -->
<g id="node1" class="node">
<title>configs</title>
<ellipse fill="none" stroke="#000000" cx="140.004" cy="-90" rx="63.8893" ry="18"/>
<text text-anchor="middle" x="140.004" y="-86.3" font-family="Times,serif" font-size="14.00" fill="#000000">Configurations</text>
</g>
<!-- Particles -->
<g id="node2" class="node">
<title>Particles</title>
<ellipse fill="none" stroke="#000000" cx="41" cy="-18" rx="41" ry="18"/>
<text text-anchor="middle" x="41" y="-14.3" font-family="Times,serif" font-size="14.00" fill="#000000">Particles</text>
</g>
<!-- configs&#45;&gt;Particles -->
<g id="edge1" class="edge">
<title>configs&#45;&gt;Particles</title>
<path fill="none" stroke="#000000" d="M116.794,-73.119C103.034,-63.113 85.453,-50.329 70.691,-39.594"/>
<polygon fill="#000000" stroke="#000000" points="72.5208,-36.597 62.375,-33.545 68.4031,-42.2578 72.5208,-36.597"/>
</g>
<!-- Domain -->
<g id="node3" class="node">
<title>Domain</title>
<ellipse fill="none" stroke="#000000" cx="140.004" cy="-18" rx="39.7935" ry="18"/>
<text text-anchor="middle" x="140.004" y="-14.3" font-family="Times,serif" font-size="14.00" fill="#000000">Domain</text>
</g>
<!-- configs&#45;&gt;Domain -->
<g id="edge2" class="edge">
<title>configs&#45;&gt;Domain</title>
<path fill="none" stroke="#000000" d="M140.004,-71.831C140.004,-64.131 140.004,-54.974 140.004,-46.417"/>
<polygon fill="#000000" stroke="#000000" points="143.5041,-46.413 140.004,-36.413 136.5041,-46.413 143.5041,-46.413"/>
</g>
<!-- pots -->
<g id="node4" class="node">
<title>pots</title>
<ellipse fill="none" stroke="#000000" cx="291.004" cy="-90" rx="45.5" ry="18"/>
<text text-anchor="middle" x="291.004" y="-86.3" font-family="Times,serif" font-size="14.00" fill="#000000">Potentials</text>
</g>
<!-- Models -->
<g id="node5" class="node">
<title>Models</title>
<ellipse fill="none" stroke="#000000" cx="235.004" cy="-18" rx="37.8943" ry="18"/>
<text text-anchor="middle" x="235.004" y="-14.3" font-family="Times,serif" font-size="14.00" fill="#000000">Models</text>
</g>
<!-- pots&#45;&gt;Models -->
<g id="edge3" class="edge">
<title>pots&#45;&gt;Models</title>
<path fill="none" stroke="#000000" d="M277.444,-72.571C270.634,-63.815 262.254,-53.042 254.744,-43.387"/>
<polygon fill="#000000" stroke="#000000" points="257.3344,-41.0165 248.434,-35.269 251.8076,-45.3124 257.3344,-41.0165"/>
</g>
<!-- VisitModels -->
<g id="node6" class="node">
<title>VisitModels</title>
<ellipse fill="none" stroke="#000000" cx="345.004" cy="-18" rx="54.6905" ry="18"/>
<text text-anchor="middle" x="345.004" y="-14.3" font-family="Times,serif" font-size="14.00" fill="#000000">VisitModels</text>
</g>
<!-- pots&#45;&gt;VisitModels -->
<g id="edge4" class="edge">
<title>pots&#45;&gt;VisitModels</title>
<path fill="none" stroke="#000000" d="M304.074,-72.571C310.594,-63.88 318.604,-53.2 325.804,-43.6"/>
<polygon fill="#000000" stroke="#000000" points="328.6652,-45.6184 331.864,-35.518 323.0647,-41.4191 328.6652,-45.6184"/>
</g>
<!-- sys -->
<g id="node7" class="node">
<title>sys</title>
<ellipse fill="none" stroke="#000000" cx="291.004" cy="-162" rx="37.0935" ry="18"/>
<text text-anchor="middle" x="291.004" y="-158.3" font-family="Times,serif" font-size="14.00" fill="#000000">System</text>
</g>
<!-- sys&#45;&gt;configs -->
<g id="edge5" class="edge">
<title>sys&#45;&gt;configs</title>
<path fill="none" stroke="#000000" d="M264.354,-149.29C241.584,-138.44 208.414,-122.62 182.064,-110.06"/>
<polygon fill="#000000" stroke="#000000" points="183.2266,-106.7368 172.694,-105.59 180.2126,-113.0547 183.2266,-106.7368"/>
</g>
<!-- sys&#45;&gt;pots -->
<g id="edge6" class="edge">
<title>sys&#45;&gt;pots</title>
<path fill="none" stroke="#000000" d="M291.004,-143.83C291.004,-136.13 291.004,-126.97 291.004,-118.42"/>
<polygon fill="#000000" stroke="#000000" points="294.5041,-118.41 291.004,-108.41 287.5041,-118.41 294.5041,-118.41"/>
</g>
<!-- crit -->
<g id="node8" class="node">
<title>crit</title>
<ellipse fill="none" stroke="#000000" cx="468.004" cy="-162" rx="37.8943" ry="18"/>
<text text-anchor="middle" x="468.004" y="-158.3" font-family="Times,serif" font-size="14.00" fill="#000000">Criteria</text>
</g>
<!-- critfh -->
<g id="node9" class="node">
<title>critfh</title>
<ellipse fill="none" stroke="#000000" cx="468.004" cy="-90" rx="89.0842" ry="18"/>
<text text-anchor="middle" x="468.004" y="-86.3" font-family="Times,serif" font-size="14.00" fill="#000000">CriteriaFlatHistogram</text>
</g>
<!-- crit&#45;&gt;critfh -->
<g id="edge7" class="edge">
<title>crit&#45;&gt;critfh</title>
<path fill="none" stroke="#000000" stroke-dasharray="5,2" d="M468.004,-143.83C468.004,-136.13 468.004,-126.97 468.004,-118.42"/>
<polygon fill="#000000" stroke="#000000" points="471.5041,-118.41 468.004,-108.41 464.5041,-118.41 471.5041,-118.41"/>
</g>
<!-- CriteriaMetropolis -->
<g id="node10" class="node">
<title>CriteriaMetropolis</title>
<ellipse fill="none" stroke="#000000" cx="652.004" cy="-90" rx="76.8869" ry="18"/>
<text text-anchor="middle" x="652.004" y="-86.3" font-family="Times,serif" font-size="14.00" fill="#000000">CriteriaMetropolis</text>
</g>
<!-- crit&#45;&gt;CriteriaMetropolis -->
<g id="edge8" class="edge">
<title>crit&#45;&gt;CriteriaMetropolis</title>
<path fill="none" stroke="#000000" stroke-dasharray="5,2" d="M497.564,-150.43C525.944,-139.32 569.344,-122.34 602.924,-109.21"/>
<polygon fill="#000000" stroke="#000000" points="604.5181,-112.3447 612.554,-105.44 601.9662,-105.8264 604.5181,-112.3447"/>
</g>
<!-- Macrostate -->
<g id="node11" class="node">
<title>Macrostate</title>
<ellipse fill="none" stroke="#000000" cx="468.004" cy="-18" rx="50.0912" ry="18"/>
<text text-anchor="middle" x="468.004" y="-14.3" font-family="Times,serif" font-size="14.00" fill="#000000">Macrostate</text>
</g>
<!-- critfh&#45;&gt;Macrostate -->
<g id="edge9" class="edge">
<title>critfh&#45;&gt;Macrostate</title>
<path fill="none" stroke="#000000" d="M468.004,-71.831C468.004,-64.131 468.004,-54.974 468.004,-46.417"/>
<polygon fill="#000000" stroke="#000000" points="471.5041,-46.413 468.004,-36.413 464.5041,-46.413 471.5041,-46.413"/>
</g>
<!-- Bias -->
<g id="node12" class="node">
<title>Bias</title>
<ellipse fill="none" stroke="#000000" cx="563.004" cy="-18" rx="27" ry="18"/>
<text text-anchor="middle" x="563.004" y="-14.3" font-family="Times,serif" font-size="14.00" fill="#000000">Bias</text>
</g>
<!-- critfh&#45;&gt;Bias -->
<g id="edge10" class="edge">
<title>critfh&#45;&gt;Bias</title>
<path fill="none" stroke="#000000" d="M490.994,-72.571C504.864,-62.064 522.554,-48.651 536.934,-37.753"/>
<polygon fill="#000000" stroke="#000000" points="539.1084,-40.4967 544.964,-31.667 534.8802,-34.9179 539.1084,-40.4967"/>
</g>
<!-- trials -->
<g id="node13" class="node">
<title>trials</title>
<ellipse fill="none" stroke="#000000" cx="555.004" cy="-162" rx="31.3957" ry="18"/>
<text text-anchor="middle" x="555.004" y="-158.3" font-family="Times,serif" font-size="14.00" fill="#000000">Trials</text>
</g>
<!-- an -->
<g id="node14" class="node">
<title>an</title>
<ellipse fill="none" stroke="#000000" cx="674.004" cy="-162" rx="69.5877" ry="18"/>
<text text-anchor="middle" x="674.004" y="-158.3" font-family="Times,serif" font-size="14.00" fill="#000000">Analyze/Modify</text>
</g>
<!-- mc -->
<g id="node15" class="node">
<title>mc</title>
<ellipse fill="none" stroke="#000000" cx="511.004" cy="-234" rx="54" ry="18"/>
<text text-anchor="middle" x="511.004" y="-230.3" font-family="Times,serif" font-size="14.00" fill="#000000">MonteCarlo</text>
</g>
<!-- mc&#45;&gt;sys -->
<g id="edge11" class="edge">
<title>mc&#45;&gt;sys</title>
<path fill="none" stroke="#000000" d="M472.424,-221.38C433.004,-208.47 372.024,-188.52 331.814,-175.36"/>
<polygon fill="#000000" stroke="#000000" points="332.6568,-171.953 322.064,-172.16 330.4739,-178.6039 332.6568,-171.953"/>
</g>
<!-- mc&#45;&gt;crit -->
<g id="edge12" class="edge">
<title>mc&#45;&gt;crit</title>
<path fill="none" stroke="#000000" d="M500.374,-216.2C495.284,-207.68 489.094,-197.31 483.494,-187.94"/>
<polygon fill="#000000" stroke="#000000" points="486.4886,-186.1281 478.354,-179.34 480.48,-189.7193 486.4886,-186.1281"/>
</g>
<!-- mc&#45;&gt;trials -->
<g id="edge13" class="edge">
<title>mc&#45;&gt;trials</title>
<path fill="none" stroke="#000000" d="M521.874,-216.2C527.124,-207.62 533.514,-197.16 539.274,-187.73"/>
<polygon fill="#000000" stroke="#000000" points="542.3206,-189.4568 544.554,-179.1 536.3495,-185.8035 542.3206,-189.4568"/>
</g>
<!-- mc&#45;&gt;an -->
<g id="edge14" class="edge">
<title>mc&#45;&gt;an</title>
<path fill="none" stroke="#000000" d="M543.594,-219.6C568.194,-208.74 602.224,-193.7 629.354,-181.72"/>
<polygon fill="#000000" stroke="#000000" points="630.9014,-184.8628 638.634,-177.62 628.0725,-178.4598 630.9014,-184.8628"/>
</g>
</g>
</svg>
