<?xml version="1.0" encoding="UTF-8" standalone="no"?>
<!DOCTYPE svg PUBLIC "-//W3C//DTD SVG 1.1//EN"
 "http://www.w3.org/Graphics/SVG/1.1/DTD/svg11.dtd">
<!-- Generated by graphviz version 2.43.0 (0)
 -->
<!-- Title: parallel Pages: 1 -->
<svg width="428pt" height="227pt"
 viewBox="0.00 0.00 427.80 226.97" xmlns="http://www.w3.org/2000/svg" xmlns:xlink="http://www.w3.org/1999/xlink">
<g id="graph0" class="graph" transform="scale(1 1) rotate(0) translate(4 222.97)">
<title>parallel</title>
<!-- real -->
<g id="node1" class="node">
<title>real</title>
<ellipse fill="none" stroke="black" cx="78.64" cy="-200.97" rx="78.79" ry="18"/>
<text text-anchor="middle" x="78.64" y="-197.27" font-family="Times,serif" font-size="14.00">Real Materials</text>
</g>
<!-- models -->
<g id="node2" class="node">
<title>models</title>
<ellipse fill="none" stroke="black" cx="262.64" cy="-200.97" rx="87.18" ry="18"/>
<text text-anchor="middle" x="262.64" y="-197.27" font-family="Times,serif" font-size="14.00">Model Materials</text>
</g>
<!-- real&#45;&gt;models -->
<g id="edge1" class="edge">
<title>real&#45;&gt;models</title>
<path fill="none" stroke="black" d="M157.35,-200.97C159.99,-200.97 162.62,-200.97 165.26,-200.97"/>
<polygon fill="black" stroke="black" points="165.44,-204.47 175.44,-200.97 165.44,-197.47 165.44,-204.47"/>
</g>
<!-- exp -->
<g id="node3" class="node">
<title>exp</title>
<ellipse fill="none" stroke="black" cx="78.64" cy="-128.97" rx="65.79" ry="18"/>
<text text-anchor="middle" x="78.64" y="-125.27" font-family="Times,serif" font-size="14.00">Experiment</text>
</g>
<!-- real&#45;&gt;exp -->
<g id="edge2" class="edge">
<title>real&#45;&gt;exp</title>
<path fill="none" stroke="black" d="M78.64,-182.67C78.64,-174.96 78.64,-165.69 78.64,-157.09"/>
<polygon fill="black" stroke="black" points="82.14,-157.08 78.64,-147.08 75.14,-157.08 82.14,-157.08"/>
</g>
<!-- sim -->
<g id="node4" class="node">
<title>sim</title>
<ellipse fill="none" stroke="black" cx="223.64" cy="-128.97" rx="61.19" ry="18"/>
<text text-anchor="middle" x="223.64" y="-125.27" font-family="Times,serif" font-size="14.00">Simulation</text>
</g>
<!-- models&#45;&gt;sim -->
<g id="edge3" class="edge">
<title>models&#45;&gt;sim</title>
<path fill="none" stroke="black" d="M253.2,-183.03C248.6,-174.77 242.98,-164.67 237.87,-155.51"/>
<polygon fill="black" stroke="black" points="240.92,-153.8 233,-146.76 234.81,-157.2 240.92,-153.8"/>
</g>
<!-- theorize -->
<g id="node5" class="node">
<title>theorize</title>
<ellipse fill="none" stroke="black" cx="345.64" cy="-128.97" rx="43" ry="18"/>
<text text-anchor="middle" x="345.64" y="-125.27" font-family="Times,serif" font-size="14.00">Theory</text>
</g>
<!-- models&#45;&gt;theorize -->
<g id="edge4" class="edge">
<title>models&#45;&gt;theorize</title>
<path fill="none" stroke="black" d="M282.31,-183.38C293.37,-174.06 307.33,-162.29 319.32,-152.17"/>
<polygon fill="black" stroke="black" points="321.86,-154.61 327.25,-145.48 317.35,-149.26 321.86,-154.61"/>
</g>
<!-- tmodel -->
<g id="node6" class="node">
<title>tmodel</title>
<ellipse fill="none" stroke="black" cx="111.64" cy="-37.5" rx="91.32" ry="37.5"/>
<text text-anchor="middle" x="111.64" y="-48.8" font-family="Times,serif" font-size="14.00">Comparison</text>
<text text-anchor="middle" x="111.64" y="-33.8" font-family="Times,serif" font-size="14.00">Tests Model</text>
<text text-anchor="middle" x="111.64" y="-18.8" font-family="Times,serif" font-size="14.00">Approximations</text>
</g>
<!-- exp&#45;&gt;tmodel -->
<g id="edge5" class="edge">
<title>exp&#45;&gt;tmodel</title>
<path fill="none" stroke="black" d="M85.01,-110.72C87.84,-103.03 91.33,-93.57 94.84,-84.05"/>
<polygon fill="black" stroke="black" points="98.16,-85.18 98.33,-74.59 91.59,-82.76 98.16,-85.18"/>
</g>
<!-- sim&#45;&gt;tmodel -->
<g id="edge6" class="edge">
<title>sim&#45;&gt;tmodel</title>
<path fill="none" stroke="black" d="M203.36,-111.77C191.45,-102.25 175.83,-89.78 160.87,-77.83"/>
<polygon fill="black" stroke="black" points="162.65,-74.77 152.65,-71.26 158.28,-80.24 162.65,-74.77"/>
</g>
<!-- ttheory -->
<g id="node7" class="node">
<title>ttheory</title>
<ellipse fill="none" stroke="black" cx="328.64" cy="-37.5" rx="91.32" ry="37.5"/>
<text text-anchor="middle" x="328.64" y="-48.8" font-family="Times,serif" font-size="14.00">Comparison</text>
<text text-anchor="middle" x="328.64" y="-33.8" font-family="Times,serif" font-size="14.00">Tests Theory</text>
<text text-anchor="middle" x="328.64" y="-18.8" font-family="Times,serif" font-size="14.00">Approximations</text>
</g>
<!-- sim&#45;&gt;ttheory -->
<g id="edge7" class="edge">
<title>sim&#45;&gt;ttheory</title>
<path fill="none" stroke="black" d="M242.9,-111.56C253.99,-102.11 268.44,-89.8 282.31,-77.98"/>
<polygon fill="black" stroke="black" points="284.59,-80.64 289.93,-71.49 280.05,-75.31 284.59,-80.64"/>
</g>
<!-- theorize&#45;&gt;ttheory -->
<g id="edge8" class="edge">
<title>theorize&#45;&gt;ttheory</title>
<path fill="none" stroke="black" d="M342.37,-110.72C340.95,-103.26 339.21,-94.14 337.46,-84.92"/>
<polygon fill="black" stroke="black" points="340.87,-84.13 335.57,-74.96 333.99,-85.44 340.87,-84.13"/>
</g>
</g>
</svg>
