<?xml version="1.0" encoding="UTF-8" standalone="no"?>
<!DOCTYPE svg PUBLIC "-//W3C//DTD SVG 1.1//EN"
 "http://www.w3.org/Graphics/SVG/1.1/DTD/svg11.dtd">
<!-- Generated by graphviz version 2.40.1 (20161225.0304)
 -->
<!-- Title: parallel Pages: 1 -->
<svg width="787pt" height="332pt"
 viewBox="0.00 0.00 787.13 332.00" xmlns="http://www.w3.org/2000/svg" xmlns:xlink="http://www.w3.org/1999/xlink">
<g id="graph0" class="graph" transform="scale(1 1) rotate(0) translate(4 328)">
<title>parallel</title>
<!-- configs -->
<g id="node1" class="node">
<title>configs</title>
<ellipse fill="none" stroke="#000000" cx="185.5398" cy="-234" rx="67" ry="18"/>
<text text-anchor="middle" x="185.5398" y="-230.3" font-family="Times,serif" font-size="14.00" fill="#000000">Configurations</text>
</g>
<!-- Particles -->
<g id="node2" class="node">
<title>Particles</title>
<ellipse fill="none" stroke="#000000" cx="92.5438" cy="-162" rx="43" ry="18"/>
<text text-anchor="middle" x="92.5438" y="-158.3" font-family="Times,serif" font-size="14.00" fill="#000000">Particles</text>
</g>
<!-- configs&#45;&gt;Particles -->
<g id="edge1" class="edge">
<title>configs&#45;&gt;Particles</title>
<path fill="none" stroke="#000000" d="M163.4998,-216.94C150.8698,-207.16 134.8698,-194.77 121.2598,-184.23"/>
<polygon fill="#000000" stroke="#000000" points="123.1994,-181.3052 113.1498,-177.95 118.9136,-186.8399 123.1994,-181.3052"/>
</g>
<!-- Domain -->
<g id="node3" class="node">
<title>Domain</title>
<ellipse fill="none" stroke="#000000" cx="194.5398" cy="-162" rx="41" ry="18"/>
<text text-anchor="middle" x="194.5398" y="-158.3" font-family="Times,serif" font-size="14.00" fill="#000000">Domain</text>
</g>
<!-- configs&#45;&gt;Domain -->
<g id="edge2" class="edge">
<title>configs&#45;&gt;Domain</title>
<path fill="none" stroke="#000000" d="M187.8098,-215.83C188.7798,-208.13 189.9198,-198.97 190.9898,-190.42"/>
<polygon fill="#000000" stroke="#000000" points="194.4736,-190.7667 192.2398,-180.41 187.5276,-189.8992 194.4736,-190.7667"/>
</g>
<!-- pots -->
<g id="node4" class="node">
<title>pots</title>
<ellipse fill="none" stroke="#000000" cx="318.5398" cy="-234" rx="48.1917" ry="18"/>
<text text-anchor="middle" x="318.5398" y="-230.3" font-family="Times,serif" font-size="14.00" fill="#000000">Potentials</text>
</g>
<!-- mods -->
<g id="node5" class="node">
<title>mods</title>
<ellipse fill="none" stroke="#000000" cx="309.5398" cy="-162" rx="37.8943" ry="18"/>
<text text-anchor="middle" x="309.5398" y="-158.3" font-family="Times,serif" font-size="14.00" fill="#000000">Models</text>
</g>
<!-- pots&#45;&gt;mods -->
<g id="edge3" class="edge">
<title>pots&#45;&gt;mods</title>
<path fill="none" stroke="#000000" d="M316.2698,-215.83C315.3098,-208.13 314.1698,-198.97 313.0998,-190.42"/>
<polygon fill="#000000" stroke="#000000" points="316.5621,-189.8992 311.8498,-180.41 309.616,-190.7667 316.5621,-189.8992"/>
</g>
<!-- vis -->
<g id="node6" class="node">
<title>vis</title>
<ellipse fill="none" stroke="#000000" cx="555.5398" cy="-162" rx="56" ry="18"/>
<text text-anchor="middle" x="555.5398" y="-158.3" font-family="Times,serif" font-size="14.00" fill="#000000">VisitModels</text>
</g>
<!-- pots&#45;&gt;vis -->
<g id="edge4" class="edge">
<title>pots&#45;&gt;vis</title>
<path fill="none" stroke="#000000" d="M356.0998,-222.59C396.2598,-210.39 460.1898,-190.97 504.8098,-177.41"/>
<polygon fill="#000000" stroke="#000000" points="506.0384,-180.6948 514.5898,-174.44 504.0043,-173.9969 506.0384,-180.6948"/>
</g>
<!-- mod1 -->
<g id="node7" class="node">
<title>mod1</title>
<ellipse fill="none" stroke="#000000" cx="69.5438" cy="-90" rx="69.5877" ry="18"/>
<text text-anchor="middle" x="69.5438" y="-86.3" font-family="Times,serif" font-size="14.00" fill="#000000">ModelOneBody</text>
</g>
<!-- mods&#45;&gt;mod1 -->
<g id="edge5" class="edge">
<title>mods&#45;&gt;mod1</title>
<path fill="none" stroke="#000000" stroke-dasharray="5,2" d="M277.1798,-152.29C238.2298,-140.61 172.2198,-120.8 125.0798,-106.66"/>
<polygon fill="#000000" stroke="#000000" points="125.9141,-103.2561 115.3298,-103.73 123.8994,-109.96 125.9141,-103.2561"/>
</g>
<!-- mod2 -->
<g id="node8" class="node">
<title>mod2</title>
<ellipse fill="none" stroke="#000000" cx="227.5398" cy="-90" rx="71" ry="18"/>
<text text-anchor="middle" x="227.5398" y="-86.3" font-family="Times,serif" font-size="14.00" fill="#000000">ModelTwoBody</text>
</g>
<!-- mods&#45;&gt;mod2 -->
<g id="edge6" class="edge">
<title>mods&#45;&gt;mod2</title>
<path fill="none" stroke="#000000" stroke-dasharray="5,2" d="M291.3498,-146.02C280.6598,-136.64 266.9498,-124.6 254.9798,-114.09"/>
<polygon fill="#000000" stroke="#000000" points="257.2356,-111.413 247.4098,-107.45 252.6196,-116.6754 257.2356,-111.413"/>
</g>
<!-- mod3 -->
<g id="node9" class="node">
<title>mod3</title>
<ellipse fill="none" stroke="#000000" cx="391.5398" cy="-90" rx="75.5" ry="18"/>
<text text-anchor="middle" x="391.5398" y="-86.3" font-family="Times,serif" font-size="14.00" fill="#000000">ModelThreeBody</text>
</g>
<!-- mods&#45;&gt;mod3 -->
<g id="edge7" class="edge">
<title>mods&#45;&gt;mod3</title>
<path fill="none" stroke="#000000" stroke-dasharray="5,2" d="M327.7398,-146.02C338.4198,-136.64 352.1398,-124.6 364.1098,-114.09"/>
<polygon fill="#000000" stroke="#000000" points="366.4661,-116.6789 371.6698,-107.45 361.8467,-111.4194 366.4661,-116.6789"/>
</g>
<!-- VisitModelIntra -->
<g id="node10" class="node">
<title>VisitModelIntra</title>
<ellipse fill="none" stroke="#000000" cx="555.5398" cy="-90" rx="71" ry="18"/>
<text text-anchor="middle" x="555.5398" y="-86.3" font-family="Times,serif" font-size="14.00" fill="#000000">VisitModelIntra</text>
</g>
<!-- vis&#45;&gt;VisitModelIntra -->
<g id="edge8" class="edge">
<title>vis&#45;&gt;VisitModelIntra</title>
<path fill="none" stroke="#000000" stroke-dasharray="5,2" d="M555.5398,-143.83C555.5398,-136.13 555.5398,-126.97 555.5398,-118.42"/>
<polygon fill="#000000" stroke="#000000" points="559.0399,-118.41 555.5398,-108.41 552.0399,-118.41 559.0399,-118.41"/>
</g>
<!-- VisitModelCell -->
<g id="node11" class="node">
<title>VisitModelCell</title>
<ellipse fill="none" stroke="#000000" cx="711.5398" cy="-90" rx="67.6881" ry="18"/>
<text text-anchor="middle" x="711.5398" y="-86.3" font-family="Times,serif" font-size="14.00" fill="#000000">VisitModelCell</text>
</g>
<!-- vis&#45;&gt;VisitModelCell -->
<g id="edge9" class="edge">
<title>vis&#45;&gt;VisitModelCell</title>
<path fill="none" stroke="#000000" stroke-dasharray="5,2" d="M587.8698,-147.08C611.2398,-136.3 643.0498,-121.61 668.5598,-109.84"/>
<polygon fill="#000000" stroke="#000000" points="670.0264,-113.018 677.6398,-105.65 667.0934,-106.662 670.0264,-113.018"/>
</g>
<!-- ModelHardSphere -->
<g id="node12" class="node">
<title>ModelHardSphere</title>
<ellipse fill="none" stroke="#000000" cx="227.5398" cy="-18" rx="79.5" ry="18"/>
<text text-anchor="middle" x="227.5398" y="-14.3" font-family="Times,serif" font-size="14.00" fill="#000000">ModelHardSphere</text>
</g>
<!-- mod2&#45;&gt;ModelHardSphere -->
<g id="edge10" class="edge">
<title>mod2&#45;&gt;ModelHardSphere</title>
<path fill="none" stroke="#000000" stroke-dasharray="5,2" d="M227.5398,-71.831C227.5398,-64.131 227.5398,-54.974 227.5398,-46.417"/>
<polygon fill="#000000" stroke="#000000" points="231.0399,-46.413 227.5398,-36.413 224.0399,-46.413 231.0399,-46.413"/>
</g>
<!-- sys -->
<g id="node13" class="node">
<title>sys</title>
<ellipse fill="none" stroke="#000000" cx="251.5398" cy="-306" rx="38.5" ry="18"/>
<text text-anchor="middle" x="251.5398" y="-302.3" font-family="Times,serif" font-size="14.00" fill="#000000">System</text>
</g>
<!-- sys&#45;&gt;configs -->
<g id="edge11" class="edge">
<title>sys&#45;&gt;configs</title>
<path fill="none" stroke="#000000" d="M236.2398,-289.3C228.0598,-280.38 217.8298,-269.23 208.7098,-259.27"/>
<polygon fill="#000000" stroke="#000000" points="211.0266,-256.6176 201.6898,-251.61 205.8659,-261.3471 211.0266,-256.6176"/>
</g>
<!-- sys&#45;&gt;pots -->
<g id="edge12" class="edge">
<title>sys&#45;&gt;pots</title>
<path fill="none" stroke="#000000" d="M267.0798,-289.3C275.5898,-280.16 286.2798,-268.67 295.7098,-258.54"/>
<polygon fill="#000000" stroke="#000000" points="298.3726,-260.8163 302.6198,-251.11 293.2467,-256.0491 298.3726,-260.8163"/>
</g>
</g>
</svg>
